<svg enable-background="new 693.5 385.5 646 86" height="86" viewBox="693.5 385.5 646 86" width="646" xmlns="http://www.w3.org/2000/svg"><path d="m1269.072 398.74 5.332-1.347v71.884h-5.332zm-263.703 8.952c0-9.092 6.82-16.472 18.797-16.472 6.104 0 11.629 2.081 16.578 5.299l1.73-4.844c-5.176-3.218-11.174-5.298-18.186-5.298-14.967 0-24.182 10.019-24.182 21.874-.018 22.12 39.045 21.735 39.045 41.004 0 9.215-6.924 17.275-19.828 17.275-8.289 0-16.822-3.443-21.998-7.361l-.455 5.754c5.648 3.689 14.164 6.451 22.225 6.451 16.227 0 25.441-10.928 25.441-22.801.001-23.01-39.167-22.31-39.167-40.881m-202.922-14.844h39.99l1.277-5.071h-46.443v81.519h46.705l1.346-5.299h-42.875zm34.658 36.038 1.17-4.722h-30.424l-1.172 4.722zm-137.228-41.145h-6.207l17.363 36.598 5.682-.752zm34.518 73.388-15.266-32.418-5.666.734 19.707 41.422 2.168-.646 39.168-82.444h-5.666zm226.21 8.166h5.334v-82.357l-5.334 1.346zm123.555-33.678 18.902-39.675 16.471 34.587 5.439-.77-20.949-43.557-1.748.646-39.641 82.445h5.492l13.865-29.131h42.105l13.867 29.131h5.961l-16.156-33.678h-43.608zm-208.867 33.678h5.176v-71.517l-5.176 1.312zm31.318-37.192c10.701-3.34 17.625-11.4 17.73-22.801.121-11.751-9.094-21.647-26.824-21.525h-22.225l-1.346 5.071h23.326c14.514 0 21.646 6.68 21.646 17.275 0 10.194-8.252 18.797-20.633 18.797h-10.596l-1.137 4.459h11.4c1.154 0 2.412 0 3.566-.122l23.957 36.964 6.102-1.031c-3.217-4.494-8.865-12.781-11.855-17.154zm263.246 37.192h5.176v-71.517l-5.176 1.312zm31.319-37.192c10.701-3.34 17.625-11.4 17.73-22.801.121-11.751-9.094-21.647-26.824-21.525h-22.225l-1.346 5.071h23.326c14.512 0 21.646 6.68 21.646 17.275 0 10.194-8.254 18.797-20.633 18.797h-10.596l-1.137 4.459h11.4c1.154 0 2.412 0 3.566-.122l23.955 36.964 6.104-1.031c-3.217-4.494-8.865-12.781-11.855-17.154zm39.394-44.327-1.225 4.896h63.596l1.225-4.896z" fill="#fff"/><text fill="#fff" font-family="'Helvetica'" font-size="12" transform="translate(1322.2598 396.9482)">TM</text><path d="m693.5 385.5h646v86h-646z" fill="none"/></svg>